<svg width="146" height="46" viewBox="0 0 146 46" fill="none" xmlns="http://www.w3.org/2000/svg">
<path d="M60.4855 35.5244H59.6647L65.2013 26.0295H67.02V36.4755H65.2013V28.6571L65.6197 28.77L61.081 36.4755H59.0853L54.5465 28.8022L54.9811 28.6732V36.4755H53.1463V26.0295H54.9811L60.4855 35.5244Z" fill="white"/>
<path d="M72.8395 36.6528C72.1098 36.6528 71.4392 36.4755 70.8276 36.1209C70.2268 35.7662 69.7439 35.2772 69.3791 34.6539C69.025 34.0198 68.848 33.2944 68.848 32.4777C68.848 31.6394 69.0304 30.9086 69.3952 30.2853C69.76 29.6512 70.2536 29.1568 70.8759 28.8022C71.4982 28.4475 72.1957 28.2702 72.9682 28.2702C73.8266 28.2702 74.508 28.4583 75.0123 28.8344C75.5166 29.2106 75.876 29.7157 76.0906 30.3498C76.3052 30.9838 76.4125 31.6931 76.4125 32.4777C76.4125 32.9183 76.3481 33.3858 76.2194 33.8801C76.0906 34.3637 75.8867 34.8151 75.6078 35.2342C75.3395 35.6534 74.9747 35.9973 74.5133 36.2659C74.0627 36.5239 73.5047 36.6528 72.8395 36.6528ZM73.3867 35.1698C73.9876 35.1698 74.4972 35.0569 74.9157 34.8312C75.3449 34.5948 75.6668 34.2724 75.8814 33.864C76.1067 33.4556 76.2194 32.9935 76.2194 32.4777C76.2194 31.9081 76.1067 31.4245 75.8814 31.0268C75.656 30.6184 75.3342 30.3068 74.9157 30.0918C74.4972 29.8661 73.9876 29.7533 73.3867 29.7533C72.5283 29.7533 71.8631 30.0059 71.3909 30.511C70.9188 31.0161 70.6828 31.6716 70.6828 32.4777C70.6828 33.0043 70.7954 33.4717 71.0208 33.8801C71.2568 34.2885 71.5787 34.6055 71.9864 34.8312C72.3942 35.0569 72.8609 35.1698 73.3867 35.1698ZM76.2194 28.4475H78.022V36.4755H76.3481C76.3481 36.4755 76.3374 36.3734 76.3159 36.1692C76.2945 35.965 76.273 35.7179 76.2516 35.4277C76.2301 35.1268 76.2194 34.842 76.2194 34.5733V28.4475Z" fill="white"/>
<path d="M79.9858 28.4475H81.7723V36.4755H79.9858V28.4475ZM84.6694 29.979C84.0899 29.979 83.591 30.1026 83.1725 30.3498C82.7648 30.5969 82.4375 30.8979 82.1908 31.2525C81.944 31.6072 81.7723 31.9511 81.6757 32.2842L81.6596 31.3815C81.6704 31.2632 81.7079 31.0859 81.7723 30.8495C81.8367 30.6023 81.9332 30.3336 82.062 30.0435C82.2015 29.7533 82.3839 29.4739 82.6092 29.2052C82.8453 28.9258 83.1296 28.7001 83.4622 28.5282C83.8056 28.3562 84.208 28.2702 84.6694 28.2702V29.979Z" fill="white"/>
<path d="M86.1823 25.2235H87.9688V36.4755H86.1823V25.2235ZM94.2135 28.4475L89.7231 32.5744L89.7714 31.4459L94.5515 36.4755H92.2661L88.0171 31.9779L91.7349 28.4475H94.2135Z" fill="white"/>
<path d="M101.959 33.8318H103.681C103.595 34.3799 103.38 34.8688 103.037 35.2987C102.704 35.7179 102.248 36.051 101.669 36.2982C101.09 36.5346 100.397 36.6528 99.5927 36.6528C98.6807 36.6528 97.8652 36.4863 97.1463 36.1531C96.4274 35.8092 95.8641 35.3256 95.4563 34.7023C95.0486 34.0789 94.8447 33.3374 94.8447 32.4777C94.8447 31.6286 95.0433 30.8871 95.4403 30.253C95.8373 29.619 96.3845 29.13 97.0819 28.7861C97.7901 28.4422 98.6056 28.2702 99.5283 28.2702C100.483 28.2702 101.277 28.4422 101.91 28.7861C102.554 29.1192 103.032 29.6243 103.343 30.3014C103.654 30.9677 103.783 31.8113 103.729 32.8323H96.6635C96.7171 33.2837 96.862 33.6921 97.098 34.0575C97.3448 34.4121 97.6774 34.6915 98.0959 34.8957C98.5143 35.0892 99.0026 35.1859 99.5605 35.1859C100.183 35.1859 100.703 35.0623 101.122 34.8151C101.551 34.5679 101.83 34.2402 101.959 33.8318ZM99.48 29.7211C98.7504 29.7211 98.1495 29.9038 97.6774 30.2692C97.2053 30.6238 96.8995 31.0805 96.76 31.6394H101.926C101.884 31.0376 101.642 30.5701 101.202 30.2369C100.762 29.893 100.188 29.7211 99.48 29.7211Z" fill="white"/>
<path d="M104.633 28.4475H110.299V29.9145H104.633V28.4475ZM106.565 26.2874H108.367V36.4755H106.565V26.2874Z" fill="white"/>
<path d="M113.796 25.0461V26.771H111.655V25.0461H113.796ZM111.816 28.4475H113.619V36.4755H111.816V28.4475Z" fill="white"/>
<path d="M115.759 28.4475H117.545V36.4755H115.759V28.4475ZM120.925 28.2702C121.387 28.2702 121.81 28.3347 122.197 28.4637C122.594 28.5926 122.932 28.7915 123.211 29.0601C123.5 29.3181 123.72 29.6405 123.871 30.0273C124.032 30.4142 124.112 30.871 124.112 31.3976V36.4755H122.326V31.7522C122.326 31.0967 122.165 30.6131 121.843 30.3014C121.531 29.979 121.038 29.8178 120.362 29.8178C119.847 29.8178 119.375 29.9306 118.946 30.1563C118.527 30.3713 118.184 30.656 117.916 31.0107C117.647 31.3546 117.492 31.7361 117.449 32.1552L117.433 31.2847C117.486 30.8871 117.604 30.511 117.787 30.1563C117.969 29.7909 118.211 29.4685 118.511 29.1891C118.811 28.8989 119.166 28.6732 119.573 28.512C119.981 28.3508 120.432 28.2702 120.925 28.2702Z" fill="white"/>
<path d="M126.246 25.2235H128.033V36.4755H126.246V25.2235ZM134.277 28.4475L129.787 32.5744L129.835 31.4459L134.615 36.4755H132.33L128.081 31.9779L131.799 28.4475H134.277Z" fill="white"/>
<path d="M135.88 30.0757L135.558 29.5921C135.73 29.3342 135.886 29.0601 136.025 28.77C136.175 28.469 136.256 28.1735 136.267 27.8833L135.414 27.706V25.965H137.619V27.2224C137.619 27.9317 137.452 28.512 137.12 28.9634C136.798 29.4148 136.385 29.7855 135.88 30.0757Z" fill="white"/>
<path d="M138.918 33.8318H140.576C140.662 34.2402 140.882 34.5733 141.236 34.8312C141.59 35.0784 142.067 35.202 142.668 35.202C143.055 35.202 143.355 35.159 143.57 35.073C143.795 34.9871 143.95 34.8688 144.036 34.7184C144.133 34.5679 144.181 34.396 144.181 34.2025C144.181 33.9661 144.111 33.7834 143.972 33.6544C143.843 33.5255 143.65 33.418 143.393 33.332C143.135 33.2461 142.813 33.1708 142.427 33.1063C142.03 33.0096 141.638 32.9022 141.252 32.7839C140.866 32.6657 140.517 32.5206 140.206 32.3487C139.895 32.166 139.648 31.9403 139.465 31.6716C139.294 31.3922 139.208 31.0537 139.208 30.656C139.208 30.2906 139.288 29.9629 139.449 29.6727C139.621 29.3718 139.857 29.1192 140.157 28.915C140.458 28.7108 140.812 28.555 141.22 28.4475C141.627 28.3293 142.073 28.2702 142.556 28.2702C143.253 28.2702 143.832 28.3831 144.294 28.6088C144.766 28.8344 145.12 29.1515 145.356 29.5599C145.603 29.9682 145.726 30.4357 145.726 30.9623H144.149C144.063 30.5325 143.897 30.2208 143.65 30.0273C143.403 29.8339 143.033 29.7372 142.539 29.7372C142.046 29.7372 141.67 29.8232 141.413 29.9951C141.155 30.1671 141.027 30.4035 141.027 30.7044C141.027 30.9301 141.107 31.1128 141.268 31.2525C141.44 31.3815 141.681 31.4943 141.992 31.591C142.303 31.6878 142.668 31.7845 143.087 31.8812C143.473 31.9887 143.838 32.1015 144.181 32.2197C144.525 32.3272 144.83 32.4669 145.099 32.6389C145.378 32.8001 145.597 33.015 145.758 33.2837C145.919 33.5523 146 33.8855 146 34.2831C146 34.7775 145.866 35.202 145.597 35.5567C145.34 35.9113 144.964 36.1853 144.471 36.3788C143.977 36.5615 143.382 36.6528 142.684 36.6528C142.073 36.6528 141.542 36.583 141.091 36.4433C140.651 36.3036 140.281 36.1209 139.98 35.8952C139.691 35.6695 139.465 35.4277 139.304 35.1698C139.143 34.9118 139.031 34.6647 138.966 34.4282C138.913 34.1918 138.897 33.993 138.918 33.8318Z" fill="white"/>
<path d="M58.9534 18.3264C58.0682 18.3264 57.2683 18.2128 56.5538 17.9857C55.8392 17.7585 55.226 17.4281 54.7141 16.9945C54.2128 16.5505 53.8235 16.0085 53.5462 15.3684C53.2796 14.7282 53.1463 14.0055 53.1463 13.2002C53.1463 12.3845 53.2903 11.6515 53.5782 11.001C53.8662 10.3505 54.2768 9.79817 54.81 9.34388C55.3433 8.87927 55.9779 8.52823 56.7137 8.29076C57.4496 8.04297 58.2602 7.91907 59.1454 7.91907C60.1799 7.91907 61.0757 8.07395 61.8329 8.38369C62.5901 8.69343 63.1927 9.12707 63.6406 9.6846C64.0886 10.2318 64.3445 10.8823 64.4085 11.636H62.7288C62.5901 11.192 62.3608 10.81 62.0409 10.4899C61.7316 10.1699 61.3317 9.92207 60.8411 9.74655C60.3612 9.5607 59.7959 9.46778 59.1454 9.46778C58.2922 9.46778 57.5509 9.62781 56.9217 9.94788C56.3031 10.2576 55.8285 10.6964 55.4979 11.2643C55.1673 11.8218 55.002 12.4671 55.002 13.2002C55.002 13.9332 55.146 14.5682 55.4339 15.1051C55.7326 15.6316 56.1805 16.0446 56.7777 16.344C57.375 16.6331 58.1162 16.7777 59.0014 16.7777C59.6839 16.7777 60.2812 16.6796 60.7931 16.4834C61.3157 16.2769 61.7476 15.993 62.0889 15.6316C62.4302 15.2703 62.6701 14.8521 62.8088 14.3772L63.6246 14.1913C63.4753 15.5232 62.9847 16.5454 62.1529 17.2578C61.3317 17.9702 60.2652 18.3264 58.9534 18.3264ZM63.1927 18.1405C63.1927 17.8101 63.2087 17.4385 63.2407 17.0255C63.2727 16.6022 63.31 16.1737 63.3527 15.74C63.406 15.2961 63.454 14.8986 63.4967 14.5475H59.2093V13.2776H64.8085V18.1405H63.1927Z" fill="white"/>
<path d="M66.7885 10.428H68.5642V18.1405H66.7885V10.428ZM71.4438 11.8993C70.8679 11.8993 70.3719 12.018 69.956 12.2555C69.5507 12.4929 69.2255 12.782 68.9802 13.1227C68.7349 13.4634 68.5642 13.7938 68.4682 14.1139L68.4523 13.2466C68.4629 13.1331 68.5002 12.9627 68.5642 12.7356C68.6282 12.4981 68.7242 12.24 68.8522 11.9612C68.9908 11.6824 69.1721 11.414 69.3961 11.1559C69.6307 10.8874 69.9134 10.6706 70.244 10.5054C70.5852 10.3402 70.9852 10.2576 71.4438 10.2576V11.8993Z" fill="white"/>
<path d="M77.0269 18.3109C76.1417 18.3109 75.3472 18.156 74.6433 17.8463C73.9394 17.5365 73.3848 17.0823 72.9795 16.4834C72.5743 15.8846 72.3716 15.1567 72.3716 14.2997C72.3716 13.4531 72.5743 12.7304 72.9795 12.1316C73.3848 11.5224 73.9394 11.0578 74.6433 10.7377C75.3472 10.4177 76.1417 10.2576 77.0269 10.2576C77.9121 10.2576 78.7013 10.4177 79.3945 10.7377C80.0877 11.0578 80.6317 11.5224 81.0263 12.1316C81.4315 12.7304 81.6342 13.4531 81.6342 14.2997C81.6342 15.1567 81.4315 15.8846 81.0263 16.4834C80.6317 17.0823 80.0877 17.5365 79.3945 17.8463C78.7013 18.156 77.9121 18.3109 77.0269 18.3109ZM77.0269 16.9016C77.5388 16.9016 78.0081 16.8035 78.4347 16.6073C78.8613 16.4111 79.1972 16.1169 79.4425 15.7246C79.6985 15.3322 79.8264 14.8573 79.8264 14.2997C79.8264 13.7422 79.6985 13.2673 79.4425 12.8749C79.1972 12.4826 78.8613 12.1832 78.4347 11.9767C78.0187 11.7599 77.5495 11.6515 77.0269 11.6515C76.5043 11.6515 76.0297 11.7547 75.6031 11.9612C75.1765 12.1677 74.8299 12.4671 74.5633 12.8594C74.3073 13.2518 74.1793 13.7319 74.1793 14.2997C74.1793 14.8573 74.3073 15.3322 74.5633 15.7246C74.8192 16.1169 75.1605 16.4111 75.5871 16.6073C76.0244 16.8035 76.5043 16.9016 77.0269 16.9016Z" fill="white"/>
<path d="M92.4447 16.8396L91.9168 16.8241L94.2364 10.428H96.1881L93.0846 18.1405H91.4049L88.9253 11.7134H89.4852L86.9416 18.1405H85.2618L82.2223 10.428H84.174L86.4297 16.8396H85.9017L88.1734 10.428H90.253L92.4447 16.8396Z" fill="white"/>
<path d="M96.9112 10.428H102.542V11.8373H96.9112V10.428ZM98.8309 8.35271H100.623V18.1405H98.8309V8.35271Z" fill="white"/>
<path d="M110.626 18.1405V13.6803C110.626 13.2673 110.551 12.9266 110.402 12.6581C110.263 12.3793 110.045 12.1677 109.746 12.0231C109.447 11.8786 109.053 11.8063 108.562 11.8063C108.072 11.8063 107.624 11.9096 107.218 12.1161C106.813 12.3122 106.482 12.5755 106.227 12.9059C105.971 13.2363 105.821 13.6028 105.779 14.0055L105.763 13.1382C105.816 12.7665 105.933 12.4103 106.115 12.0696C106.296 11.7186 106.536 11.4088 106.834 11.1404C107.133 10.8719 107.485 10.6603 107.89 10.5054C108.296 10.3402 108.743 10.2576 109.234 10.2576C109.693 10.2576 110.114 10.3196 110.498 10.4435C110.892 10.5674 111.228 10.7532 111.506 11.001C111.794 11.2385 112.012 11.5379 112.162 11.8993C112.322 12.2503 112.402 12.6581 112.402 13.1227V18.1405H110.626ZM104.099 18.1405V7.33057H105.875V18.1405H104.099Z" fill="white"/>
<path d="M28.298 40.9577C28.4769 40.9098 28.6406 40.813 28.7678 40.6709C29.017 40.5314 29.1394 40.2892 29.2734 40.0571C33.1561 33.3321 37.0382 26.6051 40.923 19.8795C40.9696 19.7987 41.0204 19.7168 41.0619 19.6329C41.2375 19.2684 41.2967 18.8889 41.195 18.4929C41.0807 18.0497 40.9575 17.6066 40.837 17.165C40.8061 17.0498 40.788 16.9246 40.6773 16.8485C40.6608 16.8198 40.6458 16.7886 40.6287 16.7579C40.5762 16.7345 40.5364 16.7011 40.5415 16.638L40.5162 16.6095C40.452 16.6002 40.4163 16.5657 40.4178 16.497C40.2196 16.2592 39.9612 16.1256 39.6665 16.0459C39.6079 16.0329 39.5499 16.022 39.4893 16.0096C39.4179 16.0067 39.3481 16.0011 39.2768 15.9982L39.2718 15.9797L39.254 15.9955C38.9926 15.9906 38.7482 16.0737 38.5014 16.1398C35.3981 16.9714 32.2927 17.8035 29.1888 18.6329C29.0202 18.6781 28.8555 18.7465 28.675 18.7309C28.5419 18.6454 28.5008 18.533 28.581 18.388C28.6406 18.2817 28.7008 18.1774 28.7605 18.071C30.3669 15.2887 31.9717 12.509 33.5781 9.7267C33.6654 9.57546 33.7568 9.42311 33.8265 9.26339C34.1703 8.49016 33.8181 7.5706 33.2404 7.27354C32.6511 6.87597 32.0262 6.53426 31.4008 6.19928C31.1741 6.07707 30.9188 6.03747 30.6574 6.06562L30.6525 6.04712L30.6373 6.06441C30.4173 6.06605 30.2122 6.12321 30.0186 6.22356L29.9989 6.21563C29.9989 6.21563 29.9971 6.23373 29.9977 6.23579C29.7651 6.34661 29.5709 6.50223 29.4252 6.71539C29.3437 6.83865 29.2563 6.95684 29.1825 7.08461C27.5506 9.91124 25.9186 12.7379 24.2893 15.566C24.229 15.6703 24.1813 15.7801 24.1269 15.8895C24.0345 15.9561 23.9307 15.9883 23.8163 15.9727C23.7422 15.8934 23.7008 15.7964 23.6747 15.691C23.6472 15.5882 23.6099 15.4902 23.5782 15.3884C23.5404 15.231 23.5047 15.0731 23.4629 14.9168C23.0441 13.3538 22.6258 11.7929 22.207 10.2299C21.8163 8.77183 21.4256 7.31374 21.0349 5.85565C20.8553 5.18522 20.4267 4.76222 19.7455 4.60532C19.686 4.59702 19.6264 4.58873 19.5648 4.58098C19.3487 4.56396 19.1357 4.58355 18.9259 4.63976C18.3954 4.78193 17.8627 4.92465 17.3327 5.06888C17.2175 5.09974 17.1084 5.15322 16.9945 5.19697L16.9953 5.21658L16.9761 5.21071C16.9142 5.24274 16.8502 5.27532 16.7882 5.30735L16.7841 5.30845C16.6635 5.38485 16.5535 5.47604 16.4624 5.58861C16.059 6.01631 15.9617 6.5251 16.0811 7.08603C16.1181 7.25687 16.1674 7.4244 16.2131 7.5951C17.0292 10.6408 17.8448 13.6845 18.6609 16.7303C18.6923 16.8475 18.7217 16.9653 18.7551 17.0819C18.7981 17.2424 18.7295 17.3401 18.5901 17.4039C18.4066 17.3935 18.2688 17.274 18.1181 17.1887C15.354 15.5929 12.5894 13.995 9.82688 12.3966C9.72257 12.3364 9.61621 12.2767 9.51191 12.2165C8.95499 11.8984 8.3906 11.8733 7.81783 12.1789L7.81371 12.18C7.68529 12.2518 7.56579 12.3324 7.46801 12.4445C7.32262 12.5518 7.23585 12.7051 7.14854 12.8563C6.877 13.3237 6.60806 13.7925 6.33858 14.2592C6.31901 14.2931 6.29793 14.3296 6.27891 14.3656C5.86171 15.1695 6.09018 16.0715 6.83974 16.5738C6.963 16.6554 7.09282 16.7286 7.2206 16.8024C10.0029 18.4088 12.7852 20.0151 15.5655 21.622C15.6698 21.6823 15.7782 21.7414 15.878 21.8094C16.0075 21.8981 16.0096 21.9306 15.9354 22.1555C15.7821 22.2495 15.6079 22.2741 15.4393 22.3193C12.3401 23.1497 9.2388 23.9807 6.13959 24.8112C5.99563 24.8497 5.85373 24.8878 5.71142 24.9325C5.4057 25.0254 5.14915 25.1868 4.95938 25.4492C4.58805 25.8485 4.49496 26.3319 4.61146 26.8407C4.75761 27.4848 4.92542 28.1276 5.12504 28.7574C5.38137 29.566 6.12802 29.9258 6.7638 29.8965C6.96869 29.8879 7.16366 29.8423 7.35903 29.7899C10.5138 28.9446 13.6685 28.0993 16.8232 27.254C16.9405 27.2226 17.0582 27.1932 17.176 27.1639C17.2624 27.1407 17.3387 27.1622 17.3976 27.2257C17.4597 27.2929 17.4554 27.3756 17.4164 27.4521C17.3614 27.5595 17.3017 27.6658 17.2394 27.7707C15.614 30.5889 13.9881 33.4051 12.3627 36.2234C12.289 36.3512 12.2105 36.478 12.1498 36.6133C11.9387 37.0842 11.943 37.5526 12.1631 38.0204C12.3002 38.3099 12.4994 38.5431 12.7722 38.7058C13.3298 39.0347 13.8925 39.3578 14.4541 39.6769C14.5578 39.735 14.6759 39.7805 14.793 39.8065C15.1797 39.8924 15.565 39.9236 15.921 39.6894C16.0884 39.6313 16.2241 39.5288 16.3354 39.3932C16.5425 39.2694 16.637 39.0545 16.7499 38.8589C18.3764 36.0448 19.9982 33.2297 21.6227 30.4161C21.6769 30.3222 21.729 30.2289 21.7858 30.1365C21.8135 30.0916 21.8452 30.0456 21.8844 30.0109C21.9907 29.9141 22.1695 29.9477 22.2213 30.0837C22.2704 30.2094 22.301 30.3401 22.3363 30.4717C23.1667 33.5709 23.9977 36.6722 24.8281 39.7714C24.8733 39.94 24.915 40.1118 24.9745 40.2766C25.2265 40.9784 25.8465 41.392 26.5954 41.3654C26.6486 41.3666 26.7036 41.3827 26.753 41.3695C27.2667 41.2384 27.7825 41.1068 28.2935 40.9655L28.298 40.9577ZM29.5986 23.7735C28.6341 24.032 27.6695 24.2904 26.7071 24.5483C27.6716 24.2899 28.6361 24.0314 29.5986 23.7735ZM26.8878 27.7401C26.8593 27.6088 26.8328 27.4771 26.7981 27.3475C26.6063 26.6318 26.4099 25.9152 26.2181 25.1995C26.1112 24.8006 26.1317 24.762 26.5184 24.6584C28.6016 24.1002 30.687 23.5414 32.7703 22.9832C32.8484 22.9623 32.9266 22.9413 33.008 22.9327C33.093 22.921 33.171 23.0147 33.1362 23.0901C33.0809 23.213 33.0178 23.3313 32.9501 23.4486C31.4542 26.0426 29.9556 28.6351 28.4592 31.2271C28.3854 31.3548 28.3241 31.4881 28.2561 31.6209C28.1826 31.7001 28.09 31.7249 27.9859 31.7065C27.9129 31.4836 27.8415 31.2581 27.7685 31.0352C27.4748 29.9391 27.1806 28.8409 26.8869 27.7447L26.8878 27.7401Z" fill="white"/>
</svg>
