<svg width="71" height="38" viewBox="0 0 71 38" fill="none" xmlns="http://www.w3.org/2000/svg">
<path d="M3.38603 22.2028C1.64093 21.7616 1.83002 19.0554 2.09671 17.2662C2.79351 12.4295 5.56354 5.02249 6.81472 2.39915C6.95378 2.09392 7.32519 1.97121 7.63041 2.11027C7.93564 2.24932 8.05835 2.62073 7.8902 2.9186C5.60011 7.69292 1.51317 20.5535 3.70924 21.0468C4.79274 21.2898 5.05076 20.0244 10.6421 7.82272C10.7738 7.54658 11.1161 7.41652 11.3996 7.51914C11.7122 7.62911 11.8787 7.9497 11.7687 8.26228C11.0494 10.6178 8.73377 19.5322 9.83472 21.4196C9.92165 21.5654 9.97982 21.5801 10.0089 21.5874C12.0522 22.0731 16.3545 10.319 17.9786 4.26237C18.0595 3.94243 18.3874 3.74685 18.7073 3.82774C19.0273 3.90862 19.2229 4.23657 19.142 4.5565C18.1941 8.06106 13.576 23.6342 9.74386 22.7582C7.46053 22.2428 8.55211 16.7013 9.03139 14.316C6.0233 20.9511 5.40023 22.6811 3.44419 22.2176L3.38603 22.2028ZM18.2418 21.8432C13.7627 20.7108 15.7249 16.132 18.6252 14.4517C20.6875 13.2712 22.1254 14.3155 22.1077 15.4869C22.1028 17.3423 19.1389 18.2948 17.0298 17.9473C15.9243 20.4837 18.884 21.1391 20.8062 20.6349C22.1387 20.2601 23.5672 19.3835 24.9825 17.9466C25.2232 17.7289 25.5943 17.7299 25.812 17.9706C26.066 18.1895 26.0577 18.5897 25.817 18.8073C22.7603 21.8406 20.1323 22.3212 18.2418 21.8432ZM17.7532 16.7996C19.2445 16.8981 20.9126 16.1749 20.9073 15.4619C20.9159 14.938 19.3373 14.8174 17.7532 16.7996ZM33.8141 25.7493C27.5609 24.1683 33.8829 16.2978 36.9485 18.125C37.6676 18.5853 37.9706 19.5902 37.4304 20.2582C37.204 20.5413 36.8547 20.5768 36.5642 20.3796C36.3101 20.1606 36.282 19.7822 36.4719 19.5207C36.4719 19.5207 36.5083 19.499 36.4939 19.4335C36.2284 18.0358 32.3145 20.5429 32.3517 22.9659C32.3909 24.6468 36.0754 26.3519 40.5475 21.8817C40.7882 21.6641 41.1593 21.6651 41.3842 21.8767C41.631 22.1247 41.63 22.4958 41.3819 22.7425C38.3252 25.7758 35.6755 26.2199 33.8141 25.7493ZM38.7835 26.7581C37.1296 24.8547 41.2266 19.1756 45.9965 20.3816C46.3164 20.4625 46.512 20.7904 46.4311 21.1103C46.3502 21.4303 46.0223 21.6259 45.7024 21.545C41.1942 20.4052 37.7492 27.1774 40.6629 25.9336C42.076 25.3626 43.7982 23.4463 44.8054 22.2775C45.0244 22.0234 45.3738 21.9879 45.6352 22.1778C45.8966 22.3677 45.9612 22.7244 45.7639 23.0149C45.428 23.487 45.1499 24.0974 44.9082 24.6861C42.7562 29.5263 46.9114 26.5541 49.1371 24.1153C49.3852 23.8686 49.7562 23.8695 49.9812 24.0811C50.2353 24.3001 50.2634 24.6785 50.0445 24.9326C44.973 30.4271 42.2931 28.5428 43.1739 25.6711C41.8975 26.8028 39.9152 28.0344 38.7835 26.7581ZM48.2317 29.1778C47.9191 29.0678 47.7235 28.7399 47.797 28.449C48.3997 26.1877 49.2932 24 49.8811 21.7969C49.962 21.477 50.2899 21.2814 50.6099 21.3623C50.9298 21.4432 51.1254 21.7711 51.0445 22.0911C50.8239 22.9636 50.5378 23.8505 50.2664 24.6793C51.6233 23.3514 54.0359 21.7643 55.7362 22.6274C56.0414 22.7664 56.1641 23.1379 55.996 23.4357C55.8569 23.741 55.4929 23.8346 55.2167 23.7029C53.7852 23.0006 49.9144 25.7043 48.9531 28.7722C48.8795 29.0631 48.5516 29.2587 48.2317 29.1778ZM57.0974 31.6668C52.6183 30.5344 54.5804 25.9556 57.4808 24.2753C59.5431 23.0948 60.9809 24.1391 60.9633 25.3105C60.9584 27.1659 57.9945 28.1184 55.8853 27.7708C54.7799 30.3073 57.7395 30.9627 59.6617 30.4585C60.9943 30.0837 62.4227 29.207 63.8381 27.7701C64.0788 27.5525 64.4499 27.5535 64.6675 27.7942C64.9216 28.0131 64.9132 28.4133 64.6726 28.6309C61.6158 31.6642 58.9879 32.1447 57.0974 31.6668ZM56.6087 26.6231C58.1 26.7217 59.7682 25.9985 59.7628 25.2854C59.7715 24.7616 58.1929 24.641 56.6087 26.6231ZM65.5114 32.8967C65.1915 32.8158 65.025 32.4952 65.1058 32.1753L69.2204 17.1247C69.3013 16.8047 69.6583 16.6165 69.9783 16.6974C70.2982 16.7783 70.4647 17.0989 70.3765 17.4479L66.2619 32.4985C66.181 32.8184 65.8604 32.9849 65.5405 32.904L65.5114 32.8967ZM64.2038 37.579C63.7966 37.4761 63.5576 37.0752 63.6605 36.668C63.7635 36.2609 64.1643 36.0218 64.5715 36.1248C64.9787 36.2277 65.2177 36.6285 65.1148 37.0357C65.0118 37.4429 64.611 37.6819 64.2038 37.579ZM64.3803 36.881L64.4167 36.8592C64.4241 36.8301 64.395 36.8228 64.395 36.8228C64.395 36.8228 64.3659 36.8154 64.3586 36.8445L64.3803 36.881Z" fill="white"/>
</svg>
